HIERARCHY
ROOT Hips
{
	OFFSET -3.958830 18.904000 13.208200
	CHANNELS 6 Xposition Yposition Zposition Zrotation Yrotation Xrotation 
	JOINT LHipJoint
	{
		OFFSET 0.000000 0.000000 0.000000
		CHANNELS 3 Zrotation Yrotation Xrotation
		JOINT LeftUpLeg
		{
			OFFSET 1.800000 -1.400000 0.085000
			CHANNELS 3 Zrotation Yrotation Xrotation
			JOINT LeftLeg
			{
				OFFSET 2.215000 -6.000000 0.000000
				CHANNELS 3 Zrotation Yrotation Xrotation
				JOINT LeftFoot
				{
					OFFSET 2.500000 -6.900000 0.000000
					CHANNELS 3 Zrotation Yrotation Xrotation
					JOINT LeftToeBase
					{
						OFFSET 0.200000 -0.500000 1.950000
						CHANNELS 3 Zrotation Yrotation Xrotation
						End Site
						{
							OFFSET 0.000000 0.000000 0.000000
						}
					}
				}
			}
		}
	}
	JOINT RHipJoint
	{
		OFFSET 0.000000 0.000000 0.000000
		CHANNELS 3 Zrotation Yrotation Xrotation
		JOINT RightUpLeg
		{
			OFFSET -1.800000 -1.400000 0.085000
			CHANNELS 3 Zrotation Yrotation Xrotation
			JOINT RightLeg
			{
				OFFSET -2.215000 -6.000000 0.000000
				CHANNELS 3 Zrotation Yrotation Xrotation
				JOINT RightFoot
				{
					OFFSET -2.500000 -6.900000 0.000000
					CHANNELS 3 Zrotation Yrotation Xrotation
					JOINT RightToeBase
					{
						OFFSET -0.200000 -0.500000 1.950000
						CHANNELS 3 Zrotation Yrotation Xrotation
						End Site
						{
							OFFSET 0.000000 0.000000 0.000000
						}
					}
				}
			}
		}
	}
	JOINT LowerBack
	{
		OFFSET 0.000000 0.000000 0.000000
		CHANNELS 3 Zrotation Yrotation Xrotation
		JOINT Spine
		{
			OFFSET -0.087000 1.940000 -0.288900
			CHANNELS 3 Zrotation Yrotation Xrotation
			JOINT Spine1
			{
				OFFSET 0.000000 1.950000 0.060000
				CHANNELS 3 Zrotation Yrotation Xrotation
				JOINT Neck
				{
					OFFSET 0.000000 0.000000 0.000000
					CHANNELS 3 Zrotation Yrotation Xrotation
					JOINT Neck1
					{
						OFFSET 0.000000 1.600000 0.340000
						CHANNELS 3 Zrotation Yrotation Xrotation
						JOINT Head
						{
							OFFSET 0.000000 1.667000 -0.240000
							CHANNELS 3 Zrotation Yrotation Xrotation
							End Site
							{
								OFFSET 0.000000 0.000000 0.000000
							}
						}
					}
				}
				JOINT LeftShoulder
				{
					OFFSET 0.000000 0.000000 0.000000
					CHANNELS 3 Zrotation Yrotation Xrotation
					JOINT LeftArm
					{
						OFFSET 2.700000 1.550000 -0.730000
						CHANNELS 3 Zrotation Yrotation Xrotation
						JOINT LeftForeArm
						{
							OFFSET 5.450000 0.000000 0.000000
							CHANNELS 3 Zrotation Yrotation Xrotation
							JOINT LeftHand
							{
								OFFSET 3.450000 0.000000 0.000000
								CHANNELS 3 Zrotation Yrotation Xrotation
								JOINT LeftHandIndex1
								{
									OFFSET 0.750000 0.000000 0.000000
									CHANNELS 3 Zrotation Yrotation Xrotation
									End Site
									{
										OFFSET 0.000000 0.000000 0.000000
									}
								}
							}
						}
					}
				}
				JOINT RightShoulder
				{
					OFFSET 0.000000 0.000000 0.000000
					CHANNELS 3 Zrotation Yrotation Xrotation
					JOINT RightArm
					{
						OFFSET -2.700000 1.550000 -0.730000
						CHANNELS 3 Zrotation Yrotation Xrotation
						JOINT RightForeArm
						{
							OFFSET -5.450000 0.000000 0.000000
							CHANNELS 3 Zrotation Yrotation Xrotation
							JOINT RightHand
							{
								OFFSET -3.450000 0.000000 0.000000
								CHANNELS 3 Zrotation Yrotation Xrotation
								JOINT RightHandIndex1
								{
									OFFSET -0.750000 0.000000 0.000000
									CHANNELS 3 Zrotation Yrotation Xrotation
									End Site
									{
										OFFSET 0.000000 0.000000 0.000000
									}
								}
							}
						}
					}
				}
			}
		}
	}
}
MOTION
Frames: 7
Frame Time: 0.016667
0.402640 14.110510 -3.696390 -42.678696 14.108729 36.919845 -15.954700 7.937642 6.983633 -9.661120 -25.562261 -70.393271 57.731030 -20.123761 54.877985 2.713500 14.299154 0.167828 0.739770 0.335900 1.184750 18.824153 -4.711784 6.079277 -9.020721 19.808278 -70.591952 -19.760078 2.213674 60.181840 -1.657208 -8.197646 1.355540 -0.287790 -0.322420 0.531030 -2.982196 -2.363336 -11.341546 16.011248 -4.066350 68.146790 -10.859720 7.819567 -1.415498 10.614829 8.440556 -12.109976 14.819871 -1.914753 48.340714 -20.187170 13.814440 -13.507460 -11.614160 -35.791465 7.360393 5.007692 -29.156596 -5.189824 13.314594 -4.815972 -1.491921 -3.797686 3.068002 0.438970 -0.105870 0.451530 -0.004870 -10.158764 36.043826 -4.457058 -15.077833 22.468183 -21.295874 -27.790557 75.641831 -16.829677 1.998848 -1.757615 0.447430 -0.271650 -0.401600 -0.262190 
0.382090 14.011880 -3.632540 -43.058582 13.651296 32.642901 -15.992462 8.486669 6.677501 -11.408821 -23.767702 -64.503062 56.977576 -20.280495 56.168974 2.672989 14.596595 0.117961 0.636200 0.143220 1.213160 18.712603 -4.936550 5.917016 -6.096422 20.037253 -66.961974 -23.874960 4.764992 57.395208 -1.617264 -8.120702 1.369266 -0.340250 -0.250020 0.544380 -2.784022 -2.887426 -11.104124 15.299568 -3.761544 69.859229 -10.074227 7.542900 0.387847 11.783130 9.022558 -11.887840 16.205804 -2.361020 48.148593 -23.749680 14.690440 -11.691630 -13.152635 -35.900268 7.673900 4.925403 -28.262519 -5.548261 13.738687 -5.573029 -1.673379 -3.889902 3.026807 0.456770 -0.025100 0.376790 -0.069500 -11.052300 36.282971 -4.571119 -17.565436 20.927947 -22.500837 -38.029607 78.060538 -24.115666 1.879103 -1.449597 0.347170 -0.233750 -0.308800 -0.334980 
0.355250 13.923130 -3.582740 -45.292912 12.231039 28.841311 -15.984856 8.952480 6.223038 -12.520827 -21.228941 -60.198413 57.405501 -20.621518 57.060090 2.696031 14.924480 0.045522 0.609180 0.106120 1.204360 18.661879 -5.032314 6.044780 -3.133818 21.681154 -64.308866 -25.606603 6.193219 56.273378 -1.593325 -8.211526 1.327240 -0.295810 -0.198950 0.560880 -2.728868 -3.186815 -10.903623 15.372459 -3.128357 70.512524 -9.518044 7.994833 3.133480 12.847384 7.722618 -10.611318 13.615748 -0.787149 46.326436 -25.198130 15.332610 -9.262910 -14.802119 -34.943460 7.348979 5.214215 -28.179375 -5.965262 13.961414 -6.229421 -1.775524 -3.965088 3.112205 0.378240 0.072480 0.292760 -0.088950 -11.722574 36.759656 -5.164065 -20.752358 19.656596 -23.574724 -51.055573 79.367133 -32.885377 1.700744 -1.055903 0.306940 -0.260160 -0.282700 -0.358150 
0.343240 13.847050 -3.549460 -46.782301 11.425856 26.417093 -15.941853 9.238614 5.957261 -12.139046 -19.372962 -57.838186 54.649759 -19.912561 59.408725 2.654544 14.917720 0.040866 0.605920 0.112660 1.196870 18.650364 -5.219013 6.081251 -4.043610 21.566993 -63.759007 -21.812112 4.325283 57.505287 -1.484422 -8.103469 1.334433 -0.256880 -0.149120 0.603670 -2.791084 -3.166723 -10.713594 16.101076 -3.556503 69.938967 -9.995398 7.655816 5.555995 13.707183 6.380219 -9.359349 11.293903 0.756332 44.481866 -25.859020 15.831720 -7.504860 -16.208965 -33.994215 6.858517 5.967688 -28.354467 -6.399719 13.816374 -6.136646 -1.795673 -4.054245 3.210988 0.277200 0.168330 0.228320 -0.098940 -12.187472 36.402839 -5.787584 -22.374500 19.910474 -23.727491 -62.977438 78.691718 -40.170317 1.495808 -0.542368 0.315830 -0.304010 -0.269480 -0.353910 
0.317540 13.775710 -3.526150 -46.741029 10.317983 25.479430 -15.955744 9.423178 5.895393 -12.547373 -18.694750 -56.910410 50.824986 -18.491617 62.100886 2.561468 14.778332 0.086924 0.521940 0.001850 1.172260 18.601014 -5.359549 5.987854 -5.431663 20.635766 -63.497391 -19.077075 2.890158 57.162067 -1.346529 -7.841976 1.419939 -0.296720 -0.075840 0.607140 -2.737108 -3.248411 -10.594594 15.126757 -2.510066 68.815282 -9.797810 7.576374 6.133040 13.988639 6.568617 -8.953888 11.939600 0.848595 43.793050 -27.006660 16.634700 -5.982400 -17.777869 -33.612143 6.699414 6.074560 -28.482976 -6.421487 13.287022 -5.615368 -1.739320 -4.137620 3.185200 0.242810 0.240140 0.162840 -0.127180 -11.133509 36.093896 -5.626206 -22.502884 21.770018 -22.906144 -68.865635 77.578542 -43.529808 1.397016 -0.167462 0.269100 -0.285690 -0.213280 -0.370530 
0.321520 13.719960 -3.513210 -48.549198 9.791069 24.373854 -15.865673 9.478827 5.846712 -11.403997 -17.631796 -57.405014 44.601169 -15.926805 65.848000 2.346411 14.303964 0.178911 0.527530 0.008920 1.175640 18.642466 -5.675344 5.910184 -4.905415 20.421480 -61.761654 -16.376706 1.393740 56.348593 -1.269308 -7.536724 1.505047 -0.277070 -0.026190 0.639170 -2.949304 -2.778650 -10.449294 17.173583 -3.558465 67.895139 -11.434078 7.441525 7.180305 14.433518 6.080092 -8.564287 11.344660 1.639143 42.964735 -26.628920 16.504600 -6.708950 -18.303244 -33.488201 6.396925 6.455029 -28.968584 -6.488411 13.170063 -4.359529 -1.766294 -4.209432 3.164679 0.230330 0.280050 0.153720 -0.123680 -11.582753 35.752509 -6.000762 -21.274429 22.888100 -22.459568 -72.731832 76.691292 -46.152798 1.344252 0.023629 0.263080 -0.256080 -0.190060 -0.365600 
0.331090 13.670270 -3.509640 -49.668380 8.677405 24.468771 -15.789809 9.282917 6.041716 -10.213384 -17.752464 -59.907303 34.438697 -10.237835 71.464280 2.050867 13.432097 0.396902 0.552450 0.104540 1.138070 18.695186 -5.932694 5.767986 -7.452119 19.264373 -61.753884 -10.393867 -1.965195 57.081524 -1.206327 -7.545448 1.526979 -0.201370 0.059240 0.620150 -3.169381 -2.181189 -10.365652 18.500445 -3.802504 65.612818 -12.912271 7.025453 8.454291 14.640953 5.227137 -7.796287 10.140642 2.702341 41.289068 -25.290430 16.140350 -6.750520 -18.989945 -32.734866 5.765652 7.144516 -29.709994 -6.525657 12.181461 -3.657625 -1.661923 -4.265750 3.140604 0.148100 0.343930 0.122230 -0.069280 -11.295447 34.882752 -6.198808 -20.078810 25.455269 -21.073763 -77.098082 74.287420 -48.767984 1.359877 0.097030 0.257680 -0.180480 -0.209030 -0.315070 
